<svg width="32" height="32" viewBox="0 0 32 32" fill="none" xmlns="http://www.w3.org/2000/svg">
<path d="M7 1.5H25C25.7957 1.5 26.5587 1.81607 27.1213 2.37868C27.6839 2.94129 28 3.70435 28 4.5V25.5C28 25.7652 27.8946 26.0196 27.7071 26.2071C27.5196 26.3946 27.2652 26.5 27 26.5H5C4.73478 26.5 4.48043 26.3946 4.29289 26.2071C4.10536 26.0196 4 25.7652 4 25.5V4.5C4 3.70435 4.31607 2.94129 4.87868 2.37868C5.44129 1.81607 6.20435 1.5 7 1.5Z" fill="#FF7F26"/>
<path d="M5 26.5H9V30C9 30.1326 8.94732 30.2598 8.85355 30.3536C8.75979 30.4473 8.63261 30.5 8.5 30.5H5.5C5.36739 30.5 5.24021 30.4473 5.14645 30.3536C5.05268 30.2598 5 30.1326 5 30V26.5Z" fill="#4D5E78"/>
<path d="M23 26.5H27V30C27 30.1326 26.9473 30.2598 26.8536 30.3536C26.7598 30.4473 26.6326 30.5 26.5 30.5H23.5C23.3674 30.5 23.2402 30.4473 23.1464 30.3536C23.0527 30.2598 23 30.1326 23 30V26.5Z" fill="#4D5E78"/>
<path d="M7.5 24.5C8.32843 24.5 9 23.8284 9 23C9 22.1716 8.32843 21.5 7.5 21.5C6.67157 21.5 6 22.1716 6 23C6 23.8284 6.67157 24.5 7.5 24.5Z" fill="#FFB531"/>
<path d="M24.5 24.5C25.3284 24.5 26 23.8284 26 23C26 22.1716 25.3284 21.5 24.5 21.5C23.6716 21.5 23 22.1716 23 23C23 23.8284 23.6716 24.5 24.5 24.5Z" fill="#FFB531"/>
<path d="M4 6H28V19H4V6Z" fill="#47A2CA"/>
<path d="M28 6V19H7.73126C14.9244 16.7056 21.8413 12.6456 26.5044 6H28Z" fill="#41A0C9"/>
<path d="M3.5 10.5H2C1.72386 10.5 1.5 10.7239 1.5 11V16C1.5 16.2761 1.72386 16.5 2 16.5H3.5C3.77614 16.5 4 16.2761 4 16V11C4 10.7239 3.77614 10.5 3.5 10.5Z" fill="#E0E0DE"/>
<path d="M4 12.81V15.5C4 15.6326 3.94732 15.7598 3.85355 15.8536C3.75979 15.9473 3.63261 16 3.5 16H2C1.86739 16 1.74021 15.9473 1.64645 15.8536C1.55268 15.7598 1.5 15.6326 1.5 15.5V14.8344C2.37046 14.2068 3.2051 13.5309 4 12.81Z" fill="#D9D9D7"/>
<path d="M30 10.5H28.5C28.2239 10.5 28 10.7239 28 11V16C28 16.2761 28.2239 16.5 28.5 16.5H30C30.2761 16.5 30.5 16.2761 30.5 16V11C30.5 10.7239 30.2761 10.5 30 10.5Z" fill="#E0E0DE"/>
<path d="M5 26.5H9V27.5H5V26.5Z" fill="#3B495E"/>
<path d="M23 26.5H27V27.5H23V26.5Z" fill="#3B495E"/>
<path d="M30.5 13.31V16C30.5 16.1326 30.4473 16.2598 30.3536 16.3536C30.2598 16.4473 30.1326 16.5 30 16.5H28.5C28.3674 16.5 28.2402 16.4473 28.1464 16.3536C28.0527 16.2598 28 16.1326 28 16V15.3344C28.8705 14.7068 29.7051 14.0309 30.5 13.31Z" fill="#D9D9D7"/>
<path d="M7.5 21C7.10444 21 6.71776 21.1173 6.38886 21.3371C6.05996 21.5568 5.80362 21.8692 5.65224 22.2346C5.50087 22.6001 5.46126 23.0022 5.53843 23.3902C5.6156 23.7781 5.80608 24.1345 6.08579 24.4142C6.36549 24.6939 6.72186 24.8844 7.10982 24.9616C7.49778 25.0387 7.89991 24.9991 8.26537 24.8478C8.63082 24.6964 8.94318 24.44 9.16294 24.1111C9.3827 23.7822 9.5 23.3956 9.5 23C9.4994 22.4698 9.2885 21.9614 8.91356 21.5864C8.53861 21.2115 8.03025 21.0006 7.5 21ZM7.5 24C7.30222 24 7.10888 23.9414 6.94443 23.8315C6.77998 23.7216 6.65181 23.5654 6.57612 23.3827C6.50043 23.2 6.48063 22.9989 6.51922 22.8049C6.5578 22.6109 6.65304 22.4327 6.79289 22.2929C6.93275 22.153 7.11093 22.0578 7.30491 22.0192C7.49889 21.9806 7.69996 22.0004 7.88268 22.0761C8.06541 22.1518 8.22159 22.28 8.33147 22.4444C8.44135 22.6089 8.5 22.8022 8.5 23C8.49969 23.2651 8.39423 23.5193 8.20676 23.7068C8.01929 23.8942 7.76512 23.9997 7.5 24Z" fill="black"/>
<path d="M24.5 21C24.1044 21 23.7178 21.1173 23.3889 21.3371C23.06 21.5568 22.8036 21.8692 22.6522 22.2346C22.5009 22.6001 22.4613 23.0022 22.5384 23.3902C22.6156 23.7781 22.8061 24.1345 23.0858 24.4142C23.3655 24.6939 23.7219 24.8844 24.1098 24.9616C24.4978 25.0387 24.8999 24.9991 25.2654 24.8478C25.6308 24.6964 25.9432 24.44 26.1629 24.1111C26.3827 23.7822 26.5 23.3956 26.5 23C26.4994 22.4698 26.2885 21.9614 25.9136 21.5864C25.5386 21.2115 25.0303 21.0006 24.5 21ZM24.5 24C24.3022 24 24.1089 23.9414 23.9444 23.8315C23.78 23.7216 23.6518 23.5654 23.5761 23.3827C23.5004 23.2 23.4806 22.9989 23.5192 22.8049C23.5578 22.6109 23.653 22.4327 23.7929 22.2929C23.9327 22.153 24.1109 22.0578 24.3049 22.0192C24.4989 21.9806 24.7 22.0004 24.8827 22.0761C25.0654 22.1518 25.2216 22.28 25.3315 22.4444C25.4414 22.6089 25.5 22.8022 25.5 23C25.4997 23.2651 25.3942 23.5193 25.2068 23.7068C25.0193 23.8942 24.7651 23.9997 24.5 24Z" fill="black"/>
<path d="M10.5 21.5H21.5V22.5H10.5V21.5Z" fill="black"/>
<path d="M10.5 23.5H21.5V24.5H10.5V23.5Z" fill="black"/>
<path d="M30 10H28.5V4.5C28.499 3.57206 28.1299 2.68243 27.4737 2.02628C26.8176 1.37013 25.9279 1.00104 25 1H7C6.07206 1.00104 5.18243 1.37013 4.52628 2.02628C3.87013 2.68243 3.50104 3.57206 3.5 4.5V6.5H15.5V18.5H11.5227L13.5 16.3029V17.5H14.5V12.5H13.5V14.8081L10.1773 18.5H4.5V7.5H3.5V10H2C1.73488 10.0003 1.48071 10.1058 1.29324 10.2932C1.10577 10.4807 1.00031 10.7349 1 11V16C1.00031 16.2651 1.10577 16.5193 1.29324 16.7068C1.48071 16.8942 1.73488 16.9997 2 17H3.5V25.5C3.5004 25.8101 3.59673 26.1124 3.77576 26.3656C3.9548 26.6187 4.20778 26.8103 4.5 26.914V30C4.50031 30.2651 4.60577 30.5193 4.79324 30.7068C4.98071 30.8942 5.23488 30.9997 5.5 31H8.5C8.76512 30.9997 9.01929 30.8942 9.20676 30.7068C9.39423 30.5193 9.49969 30.2651 9.5 30V27H26.5V30H23.5V28H22.5V30C22.5003 30.2651 22.6058 30.5193 22.7932 30.7068C22.9807 30.8942 23.2349 30.9997 23.5 31H26.5C26.7651 30.9997 27.0193 30.8942 27.2068 30.7068C27.3942 30.5193 27.4997 30.2651 27.5 30V26.914C27.7922 26.8103 28.0452 26.6187 28.2242 26.3656C28.4033 26.1124 28.4996 25.8101 28.5 25.5V17H30C30.2651 16.9997 30.5193 16.8942 30.7068 16.7068C30.8942 16.5193 30.9997 16.2651 31 16V11C30.9997 10.7349 30.8942 10.4807 30.7068 10.2932C30.5193 10.1058 30.2651 10.0003 30 10ZM4.5 4.5C4.50074 3.83719 4.76438 3.20173 5.23306 2.73306C5.70173 2.26438 6.33719 2.00074 7 2H25C25.6628 2.00074 26.2983 2.26438 26.7669 2.73306C27.2356 3.20173 27.4993 3.83719 27.5 4.5V5.5H4.5V4.5ZM16.5 6.5H27.5V18.5H21.8227L18.5 14.8081V12.5H17.5V17.5H18.5V16.3029L20.4773 18.5H16.5V6.5ZM2 16V11H3.5V16H2ZM8.5 30H5.5V27H8.5V30ZM27 26H5C4.86744 25.9999 4.74035 25.9471 4.64661 25.8534C4.55288 25.7597 4.50015 25.6326 4.5 25.5V19.5H9.27731L9.12838 19.6655L9.87162 20.3342L10.6227 19.5H21.3773L22.1284 20.3345L22.8716 19.6658L22.7227 19.5H27.5V25.5C27.4999 25.6326 27.4471 25.7597 27.3534 25.8534C27.2597 25.9471 27.1326 25.9999 27 26ZM30 16H28.5V11H30L30.0006 16H30Z" fill="black"/>
<path d="M15.5 3H16.5V4H15.5V3Z" fill="black"/>
<path d="M17.5 3H18.5V4H17.5V3Z" fill="black"/>
<path d="M13.5 3H14.5V4H13.5V3Z" fill="black"/>
<path d="M6.5 3H7.5V4H6.5V3Z" fill="black"/>
<path d="M24.5 3H25.5V4H24.5V3Z" fill="black"/>
</svg>
