<svg width="83" height="83" viewBox="0 0 83 83" fill="none" xmlns="http://www.w3.org/2000/svg">
<path d="M18.1562 3.89062H64.8438C66.9075 3.89063 68.8867 4.71043 70.3459 6.1697C71.8052 7.62897 72.625 9.60816 72.625 11.6719V66.1406C72.625 66.8285 72.3517 67.4883 71.8653 67.9747C71.3789 68.4611 70.7192 68.7344 70.0312 68.7344H12.9688C12.2808 68.7344 11.6211 68.4611 11.1347 67.9747C10.6483 67.4883 10.375 66.8285 10.375 66.1406V11.6719C10.375 9.60816 11.1948 7.62897 12.6541 6.1697C14.1133 4.71043 16.0925 3.89063 18.1562 3.89062Z" fill="#FF7F26"/>
<path d="M12.9688 68.7344H23.3438V77.8125C23.3438 78.1565 23.2071 78.4863 22.9639 78.7295C22.7207 78.9727 22.3908 79.1094 22.0469 79.1094H14.2656C13.9217 79.1094 13.5918 78.9727 13.3486 78.7295C13.1054 78.4863 12.9688 78.1565 12.9688 77.8125V68.7344Z" fill="#4D5E78"/>
<path d="M59.6562 68.7344H70.0312V77.8125C70.0312 78.1565 69.8946 78.4863 69.6514 78.7295C69.4082 78.9727 69.0783 79.1094 68.7344 79.1094H60.9531C60.6092 79.1094 60.2793 78.9727 60.0361 78.7295C59.7929 78.4863 59.6562 78.1565 59.6562 77.8125V68.7344Z" fill="#4D5E78"/>
<path d="M19.4531 63.5469C21.6019 63.5469 23.3438 61.805 23.3438 59.6562C23.3438 57.5075 21.6019 55.7656 19.4531 55.7656C17.3044 55.7656 15.5625 57.5075 15.5625 59.6562C15.5625 61.805 17.3044 63.5469 19.4531 63.5469Z" fill="#FFB531"/>
<path d="M63.5469 63.5469C65.6956 63.5469 67.4375 61.805 67.4375 59.6562C67.4375 57.5075 65.6956 55.7656 63.5469 55.7656C61.3981 55.7656 59.6562 57.5075 59.6562 59.6562C59.6562 61.805 61.3981 63.5469 63.5469 63.5469Z" fill="#FFB531"/>
<path d="M10.375 15.5625H72.625V49.2812H10.375V15.5625Z" fill="#47A2CA"/>
<path d="M72.625 15.5625V49.2812H20.0529C38.7101 43.3302 56.6507 32.7996 68.7457 15.5625H72.625Z" fill="#41A0C9"/>
<path d="M9.07812 27.2344H5.1875C4.47126 27.2344 3.89062 27.815 3.89062 28.5312V41.5C3.89062 42.2162 4.47126 42.7969 5.1875 42.7969H9.07812C9.79437 42.7969 10.375 42.2162 10.375 41.5V28.5312C10.375 27.815 9.79437 27.2344 9.07812 27.2344Z" fill="#E0E0DE"/>
<path d="M10.375 33.2259V40.2031C10.375 40.5471 10.2384 40.8769 9.99515 41.1202C9.75194 41.3634 9.42208 41.5 9.07812 41.5H5.1875C4.84355 41.5 4.51368 41.3634 4.27047 41.1202C4.02726 40.8769 3.89063 40.5471 3.89062 40.2031V38.4767C6.14839 36.8488 8.31324 35.0958 10.375 33.2259Z" fill="#D9D9D7"/>
<path d="M77.8125 27.2344H73.9219C73.2056 27.2344 72.625 27.815 72.625 28.5312V41.5C72.625 42.2162 73.2056 42.7969 73.9219 42.7969H77.8125C78.5287 42.7969 79.1094 42.2162 79.1094 41.5V28.5312C79.1094 27.815 78.5287 27.2344 77.8125 27.2344Z" fill="#E0E0DE"/>
<path d="M12.9688 68.7344H23.3438V71.3281H12.9688V68.7344Z" fill="#3B495E"/>
<path d="M59.6562 68.7344H70.0312V71.3281H59.6562V68.7344Z" fill="#3B495E"/>
<path d="M79.1094 34.5228V41.5C79.1094 41.844 78.9727 42.1738 78.7295 42.417C78.4863 42.6602 78.1565 42.7969 77.8125 42.7969H73.9219C73.5779 42.7969 73.2481 42.6602 73.0048 42.417C72.7616 42.1738 72.625 41.844 72.625 41.5V39.7735C74.8828 38.1457 77.0476 36.3927 79.1094 34.5228Z" fill="#D9D9D7"/>
<path d="M19.4531 54.4688C18.4271 54.4688 17.4242 54.773 16.5711 55.343C15.718 55.913 15.0531 56.7232 14.6605 57.6711C14.2679 58.619 14.1651 59.662 14.3653 60.6683C14.5655 61.6746 15.0595 62.5989 15.785 63.3244C16.5105 64.0499 17.4348 64.5439 18.4411 64.7441C19.4474 64.9442 20.4904 64.8415 21.4383 64.4489C22.3862 64.0563 23.1964 63.3914 23.7664 62.5383C24.3364 61.6852 24.6406 60.6822 24.6406 59.6563C24.6391 58.2809 24.092 56.9624 23.1195 55.9898C22.147 55.0173 20.8285 54.4703 19.4531 54.4688ZM19.4531 62.25C18.9401 62.25 18.4387 62.0979 18.0121 61.8129C17.5856 61.5279 17.2531 61.1228 17.0568 60.6488C16.8605 60.1749 16.8091 59.6534 16.9092 59.1502C17.0093 58.6471 17.2563 58.1849 17.6191 57.8222C17.9818 57.4594 18.444 57.2124 18.9471 57.1123C19.4502 57.0123 19.9718 57.0636 20.4457 57.2599C20.9197 57.4563 21.3247 57.7887 21.6098 58.2152C21.8948 58.6418 22.0469 59.1433 22.0469 59.6563C22.0461 60.3439 21.7725 61.0032 21.2863 61.4894C20.8 61.9757 20.1408 62.2492 19.4531 62.25Z" fill="black"/>
<path d="M63.5469 54.4688C62.5209 54.4688 61.5179 54.773 60.6649 55.343C59.8118 55.913 59.1469 56.7232 58.7543 57.6711C58.3616 58.619 58.2589 59.662 58.4591 60.6683C58.6592 61.6746 59.1533 62.5989 59.8788 63.3244C60.6043 64.0499 61.5286 64.5439 62.5349 64.7441C63.5411 64.9442 64.5842 64.8415 65.5321 64.4489C66.48 64.0563 67.2901 63.3914 67.8601 62.5383C68.4302 61.6852 68.7344 60.6822 68.7344 59.6563C68.7329 58.2809 68.1858 56.9624 67.2133 55.9898C66.2408 55.0173 64.9222 54.4703 63.5469 54.4688ZM63.5469 62.25C63.0339 62.25 62.5324 62.0979 62.1059 61.8129C61.6793 61.5279 61.3469 61.1228 61.1506 60.6488C60.9543 60.1749 60.9029 59.6534 61.003 59.1502C61.1031 58.6471 61.3501 58.1849 61.7128 57.8222C62.0756 57.4594 62.5377 57.2124 63.0409 57.1123C63.544 57.0123 64.0655 57.0636 64.5395 57.2599C65.0134 57.4563 65.4185 57.7887 65.7035 58.2152C65.9885 58.6418 66.1406 59.1433 66.1406 59.6563C66.1398 60.3439 65.8663 61.0032 65.3801 61.4894C64.8938 61.9757 64.2345 62.2492 63.5469 62.25Z" fill="black"/>
<path d="M27.2344 55.7656H55.7656V58.3594H27.2344V55.7656Z" fill="black"/>
<path d="M27.2344 60.9531H55.7656V63.5469H27.2344V60.9531Z" fill="black"/>
<path d="M77.8125 25.9375H73.9219V11.6719C73.9192 9.26504 72.9619 6.95755 71.26 5.25566C69.5581 3.55376 67.2506 2.59645 64.8438 2.59375H18.1562C15.7494 2.59645 13.4419 3.55376 11.74 5.25566C10.0381 6.95755 9.08083 9.26504 9.07812 11.6719V16.8594H40.2031V47.9844H29.887L35.0156 42.2857V45.3906H37.6094V32.4219H35.0156V38.4086L26.3974 47.9844H11.6719V19.4531H9.07812V25.9375H5.1875C4.49984 25.9383 3.84059 26.2118 3.35434 26.6981C2.8681 27.1843 2.59457 27.8436 2.59375 28.5312V41.5C2.59457 42.1877 2.8681 42.8469 3.35434 43.3332C3.84059 43.8194 4.49984 44.0929 5.1875 44.0938H9.07812V66.1406C9.07916 66.9449 9.32901 67.7291 9.79339 68.3857C10.2578 69.0424 10.9139 69.5392 11.6719 69.8082V77.8125C11.6727 78.5002 11.9462 79.1594 12.4325 79.6457C12.9187 80.1319 13.578 80.4054 14.2656 80.4062H22.0469C22.7345 80.4054 23.3938 80.1319 23.88 79.6457C24.3663 79.1594 24.6398 78.5002 24.6406 77.8125V70.0312H68.7344V77.8125H60.9531V72.625H58.3594V77.8125C58.3602 78.5002 58.6337 79.1594 59.12 79.6457C59.6062 80.1319 60.2655 80.4054 60.9531 80.4062H68.7344C69.422 80.4054 70.0813 80.1319 70.5675 79.6457C71.0538 79.1594 71.3273 78.5002 71.3281 77.8125V69.8082C72.0861 69.5392 72.7422 69.0424 73.2066 68.3857C73.671 67.7291 73.9208 66.9449 73.9219 66.1406V44.0938H77.8125C78.5002 44.0929 79.1594 43.8194 79.6457 43.3332C80.1319 42.8469 80.4054 42.1877 80.4062 41.5V28.5312C80.4054 27.8436 80.1319 27.1843 79.6457 26.6981C79.1594 26.2118 78.5002 25.9383 77.8125 25.9375ZM11.6719 11.6719C11.6738 9.9527 12.3576 8.3045 13.5732 7.08886C14.7889 5.87322 16.4371 5.18943 18.1562 5.1875H64.8438C66.5629 5.18943 68.2111 5.87322 69.4268 7.08886C70.6424 8.3045 71.3262 9.9527 71.3281 11.6719V14.2656H11.6719V11.6719ZM42.7969 16.8594H71.3281V47.9844H56.6026L47.9844 38.4086V32.4219H45.3906V45.3906H47.9844V42.2857L53.113 47.9844H42.7969V16.8594ZM5.1875 41.5V28.5312H9.07812V41.5H5.1875ZM22.0469 77.8125H14.2656V70.0312H22.0469V77.8125ZM70.0312 67.4375H12.9688C12.6249 67.4371 12.2953 67.3004 12.0521 67.0572C11.809 66.8141 11.6723 66.4845 11.6719 66.1406V50.5781H24.063L23.6767 51.0074L25.6045 52.742L27.5526 50.5781H55.4474L57.3955 52.7426L59.3233 51.008L58.937 50.5781H71.3281V66.1406C71.3277 66.4845 71.191 66.8141 70.9479 67.0572C70.7047 67.3004 70.3751 67.4371 70.0312 67.4375ZM77.8125 41.5H73.9219V28.5312H77.8125L77.8141 41.5H77.8125Z" fill="black"/>
<path d="M40.2031 7.78125H42.7969V10.375H40.2031V7.78125Z" fill="black"/>
<path d="M45.3906 7.78125H47.9844V10.375H45.3906V7.78125Z" fill="black"/>
<path d="M35.0156 7.78125H37.6094V10.375H35.0156V7.78125Z" fill="black"/>
<path d="M16.8594 7.78125H19.4531V10.375H16.8594V7.78125Z" fill="black"/>
<path d="M63.5469 7.78125H66.1406V10.375H63.5469V7.78125Z" fill="black"/>
</svg>
