<svg width="492" height="66" viewBox="0 0 492 66" fill="none" xmlns="http://www.w3.org/2000/svg">
<path d="M1.35031 7.76C9.03031 5.73333 15.7236 4.72 21.4303 4.72C33.6436 4.72 39.7503 8.96 39.7503 17.44C39.7503 22.6133 37.3236 26.56 32.4703 29.28C35.7236 30.08 38.417 31.6267 40.5503 33.92C42.6836 36.16 43.7503 38.9867 43.7503 42.4C43.7503 48.8 41.377 53.76 36.6303 57.28C31.8836 60.7467 26.017 62.48 19.0303 62.48C12.0436 62.48 5.99031 61.0933 0.870313 58.32C2.52365 52.56 3.35031 44.8 3.35031 35.04C3.35031 25.2267 2.68365 16.1333 1.35031 7.76ZM13.4303 53.84C15.777 54.5867 18.1236 54.96 20.4703 54.96C24.1503 54.96 27.1903 54.0533 29.5903 52.24C31.9903 50.3733 33.1903 47.76 33.1903 44.4C33.1903 38 29.7236 34.8 22.7903 34.8C19.4836 34.8 16.1236 35.4933 12.7103 36.88C12.7103 42.2667 12.9503 47.92 13.4303 53.84ZM12.6303 29.84C13.377 29.68 14.4703 29.4933 15.9103 29.28C17.4036 29.0667 18.5503 28.88 19.3503 28.72C20.1503 28.56 21.137 28.32 22.3103 28C23.537 27.68 24.4703 27.3067 25.1103 26.88C25.8036 26.4 26.497 25.8133 27.1903 25.12C28.5236 23.7867 29.1903 21.84 29.1903 19.28C29.1903 14.32 26.2303 11.84 20.3103 11.84C18.3903 11.84 16.0436 12.16 13.2703 12.8C12.8436 23.7333 12.6303 29.4133 12.6303 29.84Z" fill="#F0F3F7"/>
<path d="M280.306 6.14L279.856 20.99C279.856 29.15 280.096 36.47 280.576 42.95C281.056 49.37 282.136 56.36 283.816 63.92C282.496 65 280.396 65.54 277.516 65.54C271.936 65.54 269.146 63.11 269.146 58.25C269.146 54.23 269.326 48.08 269.686 39.8C270.106 31.52 270.316 25.04 270.316 20.36C267.076 25.04 263.656 30.83 260.056 37.73C256.516 44.57 254.746 48.77 254.746 50.33C254.746 51.89 254.896 53.09 255.196 53.93C253.876 54.77 252.106 55.19 249.886 55.19C247.726 55.19 245.896 54.59 244.396 53.39C242.956 52.19 241.726 50.54 240.706 48.44C239.746 46.34 238.006 42.23 235.486 36.11C233.026 29.93 230.776 24.62 228.736 20.18C227.176 29.84 226.396 38.39 226.396 45.83C226.396 53.27 226.636 59.3 227.116 63.92C225.196 64.64 223.276 65 221.356 65C217.516 65 215.596 63.08 215.596 59.24C215.596 56.3 216.256 50.45 217.576 41.69C218.956 32.87 219.646 25.43 219.646 19.37C219.646 13.31 219.316 7.64 218.656 2.36C221.896 1.52 224.416 1.1 226.216 1.1C229.516 1.1 231.736 2.27 232.876 4.61C234.676 8.39 237.316 14.42 240.796 22.7C244.336 30.92 247.216 37.25 249.436 41.69C250.036 40.43 251.416 37.73 253.576 33.59C255.796 29.39 257.626 25.82 259.066 22.88C260.566 19.88 262.066 16.34 263.566 12.26C265.126 8.12 266.116 4.52 266.536 1.46C268.696 0.859998 270.796 0.559998 272.836 0.559998C274.936 0.559998 276.706 1.01 278.146 1.91C279.586 2.81 280.306 4.22 280.306 6.14Z" fill="#2E3743"/>
<path d="M50.1103 54.84L50.9103 38.2C50.9103 33.0267 50.1636 28.12 48.6703 23.48C50.1636 22.84 52.0036 22.52 54.1903 22.52C58.457 22.52 60.5903 24.8933 60.5903 29.64C60.5903 32.3067 60.297 36.0667 59.7103 40.92C59.1236 45.72 58.8303 49.2133 58.8303 51.4C58.8303 54.0667 60.0303 55.4 62.4303 55.4C63.8703 55.4 65.5503 54.2 67.4703 51.8C69.4436 49.3467 71.1236 46.6267 72.5103 43.64C73.9503 40.6 74.8036 38.12 75.0703 36.2C74.7503 30.3333 74.297 26.0933 73.7103 23.48C75.417 22.84 77.1503 22.52 78.9103 22.52C80.7236 22.52 82.217 23.08 83.3903 24.2C84.617 25.32 85.2303 26.7067 85.2303 28.36C85.2303 30.0133 84.9903 32.76 84.5103 36.6C84.0303 40.44 83.7903 44.4667 83.7903 48.68C83.7903 52.84 84.2703 57.2933 85.2303 62.04C83.1503 62.68 81.2836 63 79.6303 63C76.3236 63 74.6703 60.8133 74.6703 56.44C74.6703 54.52 74.8836 51.8533 75.3103 48.44C73.177 52.9733 70.5636 56.6267 67.4703 59.4C64.4303 62.12 61.337 63.48 58.1903 63.48C52.8036 63.48 50.1103 60.6 50.1103 54.84ZM100.491 48.44C100.331 49.1867 100.251 49.8 100.251 50.28C100.251 52.4667 100.891 54.1467 102.171 55.32C103.504 56.4933 105.264 57.08 107.451 57.08C109.691 57.08 111.531 56.68 112.971 55.88C114.464 55.0267 115.211 53.7733 115.211 52.12C115.211 50.4667 114.411 49.16 112.811 48.2C111.264 47.1867 109.371 46.3867 107.131 45.8C104.944 45.2133 102.731 44.5733 100.491 43.88C98.2509 43.1333 96.3309 41.9867 94.7309 40.44C93.1843 38.8933 92.4109 36.9467 92.4109 34.6C92.4109 30.92 94.3576 27.8267 98.2509 25.32C102.144 22.8133 106.224 21.56 110.491 21.56C115.184 21.56 118.758 22.52 121.211 24.44C122.651 25.56 123.371 27.0533 123.371 28.92C123.371 30.7333 122.651 32.2267 121.211 33.4C119.824 34.52 118.118 35.08 116.091 35.08C115.664 35.08 115.131 35.0267 114.491 34.92C114.651 34.2267 114.731 33.6133 114.731 33.08C114.731 31.5333 114.144 30.36 112.971 29.56C111.798 28.76 110.198 28.36 108.171 28.36C106.198 28.36 104.384 28.76 102.731 29.56C102.091 30.4133 101.771 31.5067 101.771 32.84C101.771 34.1733 102.544 35.2667 104.091 36.12C105.638 36.92 107.504 37.64 109.691 38.28C111.931 38.8667 114.171 39.56 116.411 40.36C118.651 41.1067 120.544 42.3067 122.091 43.96C123.638 45.56 124.411 47.5867 124.411 50.04C124.411 54.04 122.411 57.3733 118.411 60.04C114.464 62.6533 110.384 63.96 106.171 63.96C101.958 63.96 98.4643 63.2133 95.6909 61.72C92.9709 60.1733 91.6109 57.8533 91.6109 54.76C91.6109 52.84 92.3043 51.2933 93.6909 50.12C95.1309 48.8933 96.8643 48.28 98.8909 48.28C99.3176 48.28 99.8509 48.3333 100.491 48.44ZM166.337 25.32C164.897 31.4533 164.177 37.6133 164.177 43.8C164.177 49.9333 164.871 56.0133 166.257 62.04C164.337 62.68 162.364 63 160.337 63C158.311 63 156.897 62.4133 156.097 61.24C155.297 60.0133 154.897 58.28 154.897 56.04C154.897 53.7467 155.244 50.6267 155.937 46.68C152.151 54.7867 148.497 59.9067 144.977 62.04C143.377 63 141.724 63.48 140.017 63.48C135.964 63.48 132.817 61.9867 130.577 59C128.337 55.96 127.217 52.2 127.217 47.72C127.217 40.8933 129.111 34.92 132.897 29.8C136.684 24.6267 141.591 22.04 147.617 22.04C153.697 22.04 159.937 23.1333 166.337 25.32ZM155.857 30.12C153.031 29.2667 150.631 28.84 148.657 28.84C144.657 28.84 141.671 29.72 139.697 31.48C137.884 35.96 136.977 40.52 136.977 45.16C136.977 47.6133 137.351 50.0933 138.097 52.6C138.897 55.1067 140.097 56.36 141.697 56.36C143.564 56.36 145.964 53.6133 148.897 48.12C151.831 42.6267 154.151 36.6267 155.857 30.12ZM162.257 6.92C162.791 7.93333 163.057 9.16 163.057 10.6C163.057 11.9867 162.391 13.32 161.057 14.6C159.724 15.8267 158.177 16.44 156.417 16.44C154.711 16.44 152.071 15.9333 148.497 14.92C144.977 13.8533 142.177 13.32 140.097 13.32C138.071 13.32 136.284 14.12 134.737 15.72C134.204 14.7067 133.937 13.56 133.937 12.28C133.937 10.9467 134.657 9.74666 136.097 8.68C137.537 7.56 139.297 7 141.377 7C143.457 7 146.044 7.4 149.137 8.2C152.284 8.94666 154.871 9.32 156.897 9.32C158.924 9.32 160.711 8.52 162.257 6.92ZM188.478 63.96C182.611 63.96 178.291 62.2533 175.518 58.84C172.744 55.3733 171.358 50.5733 171.358 44.44C171.358 38.2533 173.198 32.8933 176.878 28.36C180.558 23.8267 185.278 21.56 191.038 21.56C202.878 21.56 208.798 28.2267 208.798 41.56C208.798 47.8 206.878 53.1067 203.038 57.48C199.198 61.8 194.344 63.96 188.478 63.96ZM182.718 30.36C181.758 33.4533 181.278 36.5467 181.278 39.64C181.278 42.7333 181.384 45.1333 181.598 46.84C181.811 48.5467 182.211 50.2533 182.798 51.96C184.024 55.4267 186.424 57.16 189.998 57.16C193.624 57.16 195.998 56.2 197.118 54.28C198.291 52.36 198.878 49.4 198.878 45.4C198.878 34.04 196.184 28.36 190.798 28.36C187.704 28.36 185.011 29.0267 182.718 30.36Z" fill="#F0F3F7"/>
<path d="M297.008 44.84C297.008 48.68 297.622 51.72 298.848 53.96C300.075 56.1467 302.128 57.24 305.008 57.24C307.888 57.24 310.128 56.28 311.728 54.36C313.382 52.3867 314.208 50.0133 314.208 47.24C316.022 47.24 317.595 47.6933 318.928 48.6C320.262 49.5067 320.928 50.76 320.928 52.36C320.928 55.6667 319.168 58.44 315.648 60.68C312.128 62.8667 308.422 63.96 304.528 63.96C298.448 63.96 294.048 62.3333 291.328 59.08C288.608 55.7733 287.248 50.8933 287.248 44.44C287.248 37.9867 289.062 32.5733 292.688 28.2C296.368 23.7733 301.248 21.56 307.328 21.56C311.488 21.56 314.822 22.52 317.328 24.44C319.888 26.3067 321.168 29.24 321.168 33.24C321.168 37.1867 319.355 40.1733 315.728 42.2C312.155 44.1733 307.782 45.16 302.608 45.16C300.795 45.16 298.928 45.0533 297.008 44.84ZM297.088 38.52C298.688 38.84 300.368 39 302.128 39C305.968 39 309.195 38.28 311.808 36.84C312.128 35.56 312.288 34.5467 312.288 33.8C312.288 31.9333 311.622 30.52 310.288 29.56C308.955 28.6 307.115 28.12 304.768 28.12C302.475 28.12 300.395 28.8667 298.528 30.36C297.568 33.1333 297.088 35.8533 297.088 38.52ZM365.995 30.68L365.195 48.28C365.195 53.1333 365.941 57.88 367.435 62.52C365.941 63.16 364.235 63.48 362.315 63.48C357.781 63.48 355.515 60.9467 355.515 55.88C355.515 53.5867 355.808 49.7467 356.395 44.36C356.981 38.92 357.275 35.5067 357.275 34.12C357.275 31.4533 356.075 30.12 353.675 30.12C351.915 30.12 349.915 31.4 347.675 33.96C345.488 36.4667 343.595 39.2933 341.995 42.44C340.448 45.5333 339.541 48.0933 339.275 50.12C339.488 54.28 340.021 58.2533 340.875 62.04C339.168 62.68 337.381 63 335.515 63C333.701 63 332.208 62.5733 331.035 61.72C329.915 60.8133 329.355 59.5867 329.355 58.04C329.355 56.44 329.595 53.6133 330.075 49.56C330.555 45.4533 330.795 41.4 330.795 37.4C330.795 33.3467 330.181 28.7067 328.955 23.48C330.661 22.84 332.475 22.52 334.395 22.52C336.315 22.52 337.861 23.08 339.035 24.2C340.261 25.32 340.875 26.7067 340.875 28.36C340.875 30.0133 340.661 32.6533 340.235 36.28C342.261 32.4933 344.901 29.1867 348.155 26.36C351.408 23.48 354.661 22.04 357.915 22.04C363.301 22.04 365.995 24.92 365.995 30.68ZM400.95 3.96C402.656 3.32 404.416 3 406.23 3C408.043 3 409.536 3.61333 410.71 4.84C411.883 6.01333 412.47 7.50666 412.47 9.32C412.47 11.08 412.203 15.2933 411.67 21.96C411.136 28.5733 410.87 35.1067 410.87 41.56C410.87 47.96 411.51 54.7867 412.79 62.04C410.87 62.68 408.87 63 406.79 63C403.27 63 401.51 60.52 401.51 55.56C401.51 53.9067 401.856 50.9467 402.55 46.68C400.31 51.4267 398.31 54.9467 396.55 57.24C394.843 59.5333 393.163 61.16 391.51 62.12C389.91 63.0267 388.203 63.48 386.39 63.48C382.336 63.48 379.216 61.9867 377.03 59C374.896 56.0133 373.83 52.3333 373.83 47.96C373.83 43.5867 374.603 39.48 376.15 35.64C377.75 31.7467 380.123 28.52 383.27 25.96C386.47 23.3467 389.856 22.04 393.43 22.04C397.003 22.04 400.096 22.52 402.71 23.48C402.603 16.6 402.016 10.0933 400.95 3.96ZM402.71 30.28C400.096 29.32 397.27 28.84 394.23 28.84C391.19 28.84 388.576 29.72 386.39 31.48C384.576 35.8 383.67 40.6267 383.67 45.96C383.67 48.4133 384.016 50.76 384.71 53C385.403 55.24 386.55 56.36 388.15 56.36C390.603 56.36 393.376 53.6133 396.47 48.12C399.616 42.6267 401.696 36.68 402.71 30.28ZM427.399 44.84C427.399 48.68 428.012 51.72 429.239 53.96C430.466 56.1467 432.519 57.24 435.399 57.24C438.279 57.24 440.519 56.28 442.119 54.36C443.772 52.3867 444.599 50.0133 444.599 47.24C446.412 47.24 447.986 47.6933 449.319 48.6C450.652 49.5067 451.319 50.76 451.319 52.36C451.319 55.6667 449.559 58.44 446.039 60.68C442.519 62.8667 438.812 63.96 434.919 63.96C428.839 63.96 424.439 62.3333 421.719 59.08C418.999 55.7733 417.639 50.8933 417.639 44.44C417.639 37.9867 419.452 32.5733 423.079 28.2C426.759 23.7733 431.639 21.56 437.719 21.56C441.879 21.56 445.212 22.52 447.719 24.44C450.279 26.3067 451.559 29.24 451.559 33.24C451.559 37.1867 449.746 40.1733 446.119 42.2C442.546 44.1733 438.172 45.16 432.999 45.16C431.186 45.16 429.319 45.0533 427.399 44.84ZM427.479 38.52C429.079 38.84 430.759 39 432.519 39C436.359 39 439.586 38.28 442.199 36.84C442.519 35.56 442.679 34.5467 442.679 33.8C442.679 31.9333 442.012 30.52 440.679 29.56C439.346 28.6 437.506 28.12 435.159 28.12C432.866 28.12 430.786 28.8667 428.919 30.36C427.959 33.1333 427.479 35.8533 427.479 38.52ZM466.225 48.44C466.065 49.1867 465.985 49.8 465.985 50.28C465.985 52.4667 466.625 54.1467 467.905 55.32C469.239 56.4933 470.999 57.08 473.185 57.08C475.425 57.08 477.265 56.68 478.705 55.88C480.199 55.0267 480.945 53.7733 480.945 52.12C480.945 50.4667 480.145 49.16 478.545 48.2C476.999 47.1867 475.105 46.3867 472.865 45.8C470.679 45.2133 468.465 44.5733 466.225 43.88C463.985 43.1333 462.065 41.9867 460.465 40.44C458.919 38.8933 458.145 36.9467 458.145 34.6C458.145 30.92 460.092 27.8267 463.985 25.32C467.879 22.8133 471.959 21.56 476.225 21.56C480.919 21.56 484.492 22.52 486.945 24.44C488.385 25.56 489.105 27.0533 489.105 28.92C489.105 30.7333 488.385 32.2267 486.945 33.4C485.559 34.52 483.852 35.08 481.825 35.08C481.399 35.08 480.865 35.0267 480.225 34.92C480.385 34.2267 480.465 33.6133 480.465 33.08C480.465 31.5333 479.879 30.36 478.705 29.56C477.532 28.76 475.932 28.36 473.905 28.36C471.932 28.36 470.119 28.76 468.465 29.56C467.825 30.4133 467.505 31.5067 467.505 32.84C467.505 34.1733 468.279 35.2667 469.825 36.12C471.372 36.92 473.239 37.64 475.425 38.28C477.665 38.8667 479.905 39.56 482.145 40.36C484.385 41.1067 486.279 42.3067 487.825 43.96C489.372 45.56 490.145 47.5867 490.145 50.04C490.145 54.04 488.145 57.3733 484.145 60.04C480.199 62.6533 476.119 63.96 471.905 63.96C467.692 63.96 464.199 63.2133 461.425 61.72C458.705 60.1733 457.345 57.8533 457.345 54.76C457.345 52.84 458.039 51.2933 459.425 50.12C460.865 48.8933 462.599 48.28 464.625 48.28C465.052 48.28 465.585 48.3333 466.225 48.44Z" fill="#2E3743"/>
</svg>
